<svg xmlns="http://www.w3.org/2000/svg" width="318.934" height="322.98" viewBox="0 0 318.934 322.98">
  <path id="Icon_awesome-canadian-maple-leaf" data-name="Icon awesome-canadian-maple-leaf" d="M161.887,170.362c1.111-1.211,46.73-44.758,46.73-44.758l-7.774-3.633c-4.442-2.374-3.287-5.571-2.221-8.428,1.066-3.681,8.929-32.6,8.929-32.6S186.362,85.786,181.92,87c-3.332,1.163-4.442-1.211-5.553-3.633S169.7,67.67,169.7,67.67,146.34,96.685,145.229,97.848c-4.442,3.633-8.929,0-7.818-4.844,0-4.844,12.26-62.778,12.26-62.778s-13.371,8.428-17.813,10.85c-3.332,2.422-5.6,2.422-7.818-2.422C121.775,35.022,105.073,0,105.073,0S88.415,35.022,86.194,38.655c-2.221,4.844-4.442,4.844-7.818,2.422-4.442-2.422-17.813-10.85-17.813-10.85S72.823,88.16,72.823,93c1.111,4.844-3.332,8.477-7.818,4.844C63.895,96.637,40.53,67.67,40.53,67.67s-5.553,13.224-6.663,15.646-2.221,4.8-5.553,3.633c-4.486-1.211-25.631-6.055-25.631-6.055s7.818,28.918,8.929,32.6c1.066,2.906,2.221,6.055-2.221,8.428L1.617,125.6s45.576,43.547,46.73,44.758c2.265,2.422,4.442,3.633,2.265,10.9-2.265,7.266-4.486,17-4.486,17s42.288-9.736,46.775-10.947c3.865-.436,8.129,1.211,8.129,6.055s-2.576,54.64-2.576,54.64H111.78s-2.576-49.747-2.576-54.64,4.22-6.491,8.173-6.055c4.442,1.211,46.73,10.947,46.73,10.947s-2.221-9.736-4.442-17S159.666,172.784,161.887,170.362Z" transform="translate(157.445 324.041) rotate(-139)"/>
</svg>
